<?xml version="1.0" encoding="UTF-8" standalone="no"?>
<!-- Created with Inkscape (http://www.inkscape.org/) -->

<svg
   width="147.59254mm"
   height="28.373978mm"
   viewBox="0 0 147.59254 28.373978"
   version="1.1"
   id="svg5"
   xml:space="preserve"
   inkscape:export-filename="bitmap.png"
   inkscape:export-xdpi="96.029236"
   inkscape:export-ydpi="96.029236"
   inkscape:version="1.2.1 (9c6d41e410, 2022-07-14)"
   sodipodi:docname="Salesian Airlines.svg"
   xmlns:inkscape="http://www.inkscape.org/namespaces/inkscape"
   xmlns:sodipodi="http://sodipodi.sourceforge.net/DTD/sodipodi-0.dtd"
   xmlns="http://www.w3.org/2000/svg"
   xmlns:svg="http://www.w3.org/2000/svg"><sodipodi:namedview
     id="namedview7"
     pagecolor="#ffffff"
     bordercolor="#cccccc"
     borderopacity="0"
     inkscape:showpageshadow="0"
     inkscape:pageopacity="0"
     inkscape:pagecheckerboard="0"
     inkscape:deskcolor="#ffffff"
     inkscape:document-units="px"
     showgrid="false"
     showguides="true"
     inkscape:zoom="2"
     inkscape:cx="410"
     inkscape:cy="645.5"
     inkscape:window-width="1920"
     inkscape:window-height="1057"
     inkscape:window-x="-8"
     inkscape:window-y="-8"
     inkscape:window-maximized="1"
     inkscape:current-layer="layer1"
     showborder="false"><inkscape:grid
       type="xygrid"
       id="grid692" /><sodipodi:guide
       position="-31.675586,172.00242"
       orientation="0,793.70079"
       id="guide694"
       inkscape:locked="false" /><sodipodi:guide
       position="178.32442,172.00242"
       orientation="1122.5197,0"
       id="guide696"
       inkscape:locked="false" /><sodipodi:guide
       position="178.32442,-124.99758"
       orientation="0,-793.70079"
       id="guide698"
       inkscape:locked="false" /><sodipodi:guide
       position="-31.675586,-124.99758"
       orientation="-1122.5197,0"
       id="guide700"
       inkscape:locked="false" /><sodipodi:guide
       position="26.50899,9.8529219"
       orientation="0,-1"
       id="guide790"
       inkscape:locked="false" /><sodipodi:guide
       position="54.104568,22.468232"
       orientation="0,-1"
       id="guide792"
       inkscape:locked="false" /><sodipodi:guide
       position="7.2283675,28.373762"
       orientation="0,-1"
       id="guide798"
       inkscape:locked="false" /><sodipodi:guide
       position="13.832747,-0.00014823903"
       orientation="0,-1"
       id="guide2057"
       inkscape:locked="false" /><sodipodi:guide
       position="-6.0503587e-07,9.8531419"
       orientation="1,0"
       id="guide2059"
       inkscape:locked="false" /><sodipodi:guide
       position="146.64897,7.7391419"
       orientation="1,0"
       id="guide2061"
       inkscape:locked="false" /><sodipodi:guide
       position="7.2284985,25.371062"
       orientation="1,0"
       id="guide2063"
       inkscape:locked="false" /><sodipodi:guide
       position="34.205663,7.7391419"
       orientation="0,-1"
       id="guide2065"
       inkscape:locked="false" /><sodipodi:guide
       position="16.753497,9.8532119"
       orientation="1,0"
       id="guide2067"
       inkscape:locked="false" /><sodipodi:guide
       position="18.696168,9.6666519"
       orientation="1,0"
       id="guide2069"
       inkscape:locked="false" /><sodipodi:guide
       position="147.59256,10.970512"
       orientation="1,0"
       id="guide17929"
       inkscape:locked="false" /></sodipodi:namedview><defs
     id="defs2" /><g
     inkscape:label="Layer 1"
     inkscape:groupmode="layer"
     id="layer1"
     transform="translate(-31.675586,-143.62844)"><g
       id="g18683"
       inkscape:export-filename=".\Salesian Airlines Logo.png"
       inkscape:export-xdpi="350"
       inkscape:export-ydpi="350"><path
         d="m 54.012414,162.33577 c 1.74413,0 3.420526,-0.84666 3.420526,-2.84479 0,-1.8796 -1.676396,-2.25213 -2.878661,-2.5908 -1.134531,-0.3048 -1.59173,-0.42333 -1.59173,-0.89746 0,-0.38947 0.372533,-0.67733 0.897465,-0.67733 0.609599,0 0.948265,0.3556 0.999065,0.57573 l 2.167462,-0.38947 c -0.304799,-1.28693 -1.64253,-2.13359 -3.217327,-2.13359 -1.574797,0 -3.098794,0.98213 -3.098794,2.67546 0,1.71026 1.236131,2.37066 2.438395,2.70933 1.405464,0.38946 1.981197,0.44026 1.981197,0.91439 0,0.4572 -0.423333,0.7112 -1.117598,0.7112 -0.863599,0 -1.286931,-0.44026 -1.337731,-0.8636 l -2.302929,0.3556 c 0.237066,1.778 1.879597,2.45533 3.64066,2.45533 z"
         id="path4781"
         style="font-weight:500;font-size:16.9333px;font-family:'MADE Okine Sans PERSONAL USE';-inkscape-font-specification:'MADE Okine Sans PERSONAL USE Medium';text-align:center;text-anchor:middle;stroke-width:0.264583"
         inkscape:export-filename="path4781.png"
         inkscape:export-xdpi="491.61008"
         inkscape:export-ydpi="491.61008" /><path
         d="m 62.63148,162.33577 c 1.049864,0 1.964263,-0.3556 2.675461,-0.94826 v 0.762 h 2.269062 v -8.58519 h -2.269062 v 0.762 c -0.711198,-0.59266 -1.625597,-0.94826 -2.675461,-0.94826 -2.421462,0 -4.267192,1.99813 -4.267192,4.47039 0,2.48919 1.84573,4.48732 4.267192,4.48732 z m -1.930396,-4.48732 c 0,-1.2192 0.999064,-2.21826 2.235195,-2.21826 1.236131,0 2.235196,0.99906 2.235196,2.21826 0,1.23613 -0.999065,2.23519 -2.235196,2.23519 -1.236131,0 -2.235195,-0.99906 -2.235195,-2.23519 z"
         id="path4783"
         style="font-weight:500;font-size:16.9333px;font-family:'MADE Okine Sans PERSONAL USE';-inkscape-font-specification:'MADE Okine Sans PERSONAL USE Medium';text-align:center;text-anchor:middle;stroke-width:0.264583" /><path
         d="m 69.269341,162.14951 h 2.269063 V 149.5342 h -2.269063 z"
         id="path4785"
         style="font-weight:500;font-size:16.9333px;font-family:'MADE Okine Sans PERSONAL USE';-inkscape-font-specification:'MADE Okine Sans PERSONAL USE Medium';text-align:center;text-anchor:middle;stroke-width:0.264583" /><path
         d="m 77.515846,162.33577 c 1.777996,0 3.13266,-0.74506 3.894659,-2.09973 l -1.879597,-0.89746 c -0.406399,0.52493 -1.049864,0.89746 -2.015062,0.89746 -1.100665,0 -1.862663,-0.6096 -2.167463,-1.52399 h 6.299188 c 0.524932,-3.11573 -1.761063,-5.33399 -4.284125,-5.33399 -2.438395,0 -4.470391,1.99813 -4.470391,4.47039 0,2.48919 2.150529,4.48732 4.622791,4.48732 z m -2.116663,-5.43559 c 0.3048,-0.79586 0.999065,-1.42239 1.964263,-1.42239 1.083731,0 1.74413,0.60959 1.998129,1.42239 z"
         id="path4787"
         style="font-weight:500;font-size:16.9333px;font-family:'MADE Okine Sans PERSONAL USE';-inkscape-font-specification:'MADE Okine Sans PERSONAL USE Medium';text-align:center;text-anchor:middle;stroke-width:0.264583" /><path
         d="m 86.117947,162.33577 c 1.74413,0 3.420527,-0.84666 3.420527,-2.84479 0,-1.8796 -1.676397,-2.25213 -2.878661,-2.5908 -1.134531,-0.3048 -1.59173,-0.42333 -1.59173,-0.89746 0,-0.38947 0.372532,-0.67733 0.897465,-0.67733 0.609598,0 0.948264,0.3556 0.999064,0.57573 l 2.167463,-0.38947 c -0.3048,-1.28693 -1.64253,-2.13359 -3.217327,-2.13359 -1.574797,0 -3.098794,0.98213 -3.098794,2.67546 0,1.71026 1.236131,2.37066 2.438395,2.70933 1.405464,0.38946 1.981196,0.44026 1.981196,0.91439 0,0.4572 -0.423332,0.7112 -1.117598,0.7112 -0.863598,0 -1.28693,-0.44026 -1.33773,-0.8636 l -2.302929,0.3556 c 0.237066,1.778 1.879596,2.45533 3.640659,2.45533 z"
         id="path4789"
         style="font-weight:500;font-size:16.9333px;font-family:'MADE Okine Sans PERSONAL USE';-inkscape-font-specification:'MADE Okine Sans PERSONAL USE Medium';text-align:center;text-anchor:middle;stroke-width:0.264583" /><path
         d="m 90.910088,162.14951 h 2.252129 v -8.58519 h -2.252129 z m -0.1016,-11.09132 c 0,0.67734 0.541865,1.23614 1.219197,1.23614 0.677332,0 1.236131,-0.5588 1.236131,-1.23614 0,-0.67733 -0.558799,-1.23613 -1.236131,-1.23613 -0.677332,0 -1.219197,0.5588 -1.219197,1.23613 z"
         id="path4791"
         style="font-weight:500;font-size:16.9333px;font-family:'MADE Okine Sans PERSONAL USE';-inkscape-font-specification:'MADE Okine Sans PERSONAL USE Medium';text-align:center;text-anchor:middle;stroke-width:0.264583" /><path
         d="m 98.885687,162.33577 c 1.049865,0 1.964263,-0.3556 2.675463,-0.94826 v 0.762 h 2.26906 v -8.58519 h -2.26906 v 0.762 c -0.7112,-0.59266 -1.625598,-0.94826 -2.675463,-0.94826 -2.421461,0 -4.267191,1.99813 -4.267191,4.47039 0,2.48919 1.84573,4.48732 4.267191,4.48732 z m -1.930396,-4.48732 c 0,-1.2192 0.999065,-2.21826 2.235196,-2.21826 1.236133,0 2.235193,0.99906 2.235193,2.21826 0,1.23613 -0.99906,2.23519 -2.235193,2.23519 -1.236131,0 -2.235196,-0.99906 -2.235196,-2.23519 z"
         id="path4793"
         style="font-weight:500;font-size:16.9333px;font-family:'MADE Okine Sans PERSONAL USE';-inkscape-font-specification:'MADE Okine Sans PERSONAL USE Medium';text-align:center;text-anchor:middle;stroke-width:0.264583" /><path
         d="m 105.52355,162.14951 h 2.26906 v -4.1148 c 0,-1.25306 0.59267,-2.40452 2.01506,-2.40452 1.33773,0 1.9812,1.03293 1.9812,2.08279 v 4.43653 h 2.25213 v -4.43653 c 0,-2.40453 -1.27,-4.33492 -3.92853,-4.33492 -0.96519,0 -1.74413,0.33866 -2.31986,0.91439 v -0.72813 h -2.26906 z"
         id="path4795"
         style="font-weight:500;font-size:16.9333px;font-family:'MADE Okine Sans PERSONAL USE';-inkscape-font-specification:'MADE Okine Sans PERSONAL USE Medium';text-align:center;text-anchor:middle;stroke-width:0.264583" /><path
         d="m 123.6422,162.33577 c 1.04986,0 1.96426,-0.3556 2.67546,-0.94826 v 0.762 h 2.26906 v -8.58519 h -2.26906 v 0.762 c -0.7112,-0.59266 -1.6256,-0.94826 -2.67546,-0.94826 -2.42146,0 -4.26719,1.99813 -4.26719,4.47039 0,2.48919 1.84573,4.48732 4.26719,4.48732 z m -1.9304,-4.48732 c 0,-1.2192 0.99907,-2.21826 2.2352,-2.21826 1.23613,0 2.23519,0.99906 2.23519,2.21826 0,1.23613 -0.99906,2.23519 -2.23519,2.23519 -1.23613,0 -2.2352,-0.99906 -2.2352,-2.23519 z"
         id="path4797"
         style="font-weight:500;font-size:16.9333px;font-family:'MADE Okine Sans PERSONAL USE';-inkscape-font-specification:'MADE Okine Sans PERSONAL USE Medium';text-align:center;text-anchor:middle;fill:#efb71b;fill-opacity:1;stroke-width:0.264583" /><path
         d="m 130.38166,162.14951 h 2.25213 v -8.58519 h -2.25213 z m -0.1016,-11.09132 c 0,0.67734 0.54187,1.23614 1.2192,1.23614 0.67733,0 1.23613,-0.5588 1.23613,-1.23614 0,-0.67733 -0.5588,-1.23613 -1.23613,-1.23613 -0.67733,0 -1.2192,0.5588 -1.2192,1.23613 z"
         id="path4799"
         style="font-weight:500;font-size:16.9333px;font-family:'MADE Okine Sans PERSONAL USE';-inkscape-font-specification:'MADE Okine Sans PERSONAL USE Medium';text-align:center;text-anchor:middle;fill:#efb71b;fill-opacity:1;stroke-width:0.264583" /><path
         d="m 134.42874,162.14951 h 2.25213 v -3.3528 c 0,-2.62466 1.03293,-3.16652 2.62466,-3.16652 v -2.25213 c -1.15147,0 -2.01506,0.4572 -2.62466,1.30386 v -1.1176 h -2.25213 z"
         id="path4801"
         style="font-weight:500;font-size:16.9333px;font-family:'MADE Okine Sans PERSONAL USE';-inkscape-font-specification:'MADE Okine Sans PERSONAL USE Medium';text-align:center;text-anchor:middle;fill:#efb71b;fill-opacity:1;stroke-width:0.264583" /><path
         d="m 140.57554,162.14951 h 2.26906 V 149.5342 h -2.26906 z"
         id="path4803"
         style="font-weight:500;font-size:16.9333px;font-family:'MADE Okine Sans PERSONAL USE';-inkscape-font-specification:'MADE Okine Sans PERSONAL USE Medium';text-align:center;text-anchor:middle;fill:#efb71b;fill-opacity:1;stroke-width:0.264583" /><path
         d="m 144.63951,162.14951 h 2.25213 v -8.58519 h -2.25213 z m -0.10159,-11.09132 c 0,0.67734 0.54186,1.23614 1.21919,1.23614 0.67733,0 1.23613,-0.5588 1.23613,-1.23614 0,-0.67733 -0.5588,-1.23613 -1.23613,-1.23613 -0.67733,0 -1.21919,0.5588 -1.21919,1.23613 z"
         id="path4805"
         style="font-weight:500;font-size:16.9333px;font-family:'MADE Okine Sans PERSONAL USE';-inkscape-font-specification:'MADE Okine Sans PERSONAL USE Medium';text-align:center;text-anchor:middle;fill:#efb71b;fill-opacity:1;stroke-width:0.264583" /><path
         d="m 148.68659,162.14951 h 2.26906 v -4.1148 c 0,-1.25306 0.59267,-2.40452 2.01506,-2.40452 1.33773,0 1.9812,1.03293 1.9812,2.08279 v 4.43653 h 2.25213 v -4.43653 c 0,-2.40453 -1.27,-4.33492 -3.92853,-4.33492 -0.96519,0 -1.74413,0.33866 -2.31986,0.91439 v -0.72813 h -2.26906 z"
         id="path4807"
         style="font-weight:500;font-size:16.9333px;font-family:'MADE Okine Sans PERSONAL USE';-inkscape-font-specification:'MADE Okine Sans PERSONAL USE Medium';text-align:center;text-anchor:middle;fill:#efb71b;fill-opacity:1;stroke-width:0.264583" /><path
         d="m 163.18151,162.33577 c 1.77799,0 3.13266,-0.74506 3.89466,-2.09973 l -1.8796,-0.89746 c -0.4064,0.52493 -1.04987,0.89746 -2.01506,0.89746 -1.10067,0 -1.86267,-0.6096 -2.16747,-1.52399 h 6.29919 c 0.52493,-3.11573 -1.76106,-5.33399 -4.28412,-5.33399 -2.4384,0 -4.47039,1.99813 -4.47039,4.47039 0,2.48919 2.15052,4.48732 4.62279,4.48732 z m -2.11667,-5.43559 c 0.3048,-0.79586 0.99907,-1.42239 1.96427,-1.42239 1.08373,0 1.74413,0.60959 1.99813,1.42239 z"
         id="path4809"
         style="font-weight:500;font-size:16.9333px;font-family:'MADE Okine Sans PERSONAL USE';-inkscape-font-specification:'MADE Okine Sans PERSONAL USE Medium';text-align:center;text-anchor:middle;fill:#efb71b;fill-opacity:1;stroke-width:0.264583" /><path
         d="m 171.78361,162.33577 c 1.74413,0 3.42052,-0.84666 3.42052,-2.84479 0,-1.8796 -1.67639,-2.25213 -2.87866,-2.5908 -1.13453,-0.3048 -1.59173,-0.42333 -1.59173,-0.89746 0,-0.38947 0.37254,-0.67733 0.89747,-0.67733 0.6096,0 0.94826,0.3556 0.99906,0.57573 l 2.16747,-0.38947 c -0.3048,-1.28693 -1.64253,-2.13359 -3.21733,-2.13359 -1.5748,0 -3.0988,0.98213 -3.0988,2.67546 0,1.71026 1.23614,2.37066 2.4384,2.70933 1.40546,0.38946 1.9812,0.44026 1.9812,0.91439 0,0.4572 -0.42334,0.7112 -1.1176,0.7112 -0.8636,0 -1.28693,-0.44026 -1.33773,-0.8636 l -2.30293,0.3556 c 0.23706,1.778 1.8796,2.45533 3.64066,2.45533 z"
         id="path4811"
         style="font-weight:500;font-size:16.9333px;font-family:'MADE Okine Sans PERSONAL USE';-inkscape-font-specification:'MADE Okine Sans PERSONAL USE Medium';text-align:center;text-anchor:middle;fill:#efb71b;fill-opacity:1;stroke-width:0.264583" /><path
         d="m 177.96428,162.33577 c 0.72813,0 1.30386,-0.57573 1.30386,-1.30386 0,-0.72813 -0.57573,-1.30387 -1.30386,-1.30387 -0.72813,0 -1.3208,0.57574 -1.3208,1.30387 0,0.72813 0.59267,1.30386 1.3208,1.30386 z"
         id="path4813"
         style="font-weight:500;font-size:16.9333px;font-family:'MADE Okine Sans PERSONAL USE';-inkscape-font-specification:'MADE Okine Sans PERSONAL USE Medium';text-align:center;text-anchor:middle;fill:#efb71b;fill-opacity:1;stroke-width:0.264583" /><path
         id="path638"
         style="fill:#071d49;fill-opacity:1;stroke-width:0.318319"
         d="m 61.608643,164.26336 -29.933057,7.73906 119.637144,-6.31331 v -1.42575 z m 90.843547,0 v 1.36581 l 1.57252,-0.0832 v -1.28261 z m 2.71198,0 v 1.22266 l 1.57252,-0.0832 v -1.13946 z m 2.71198,0 v 1.07952 l 1.57252,-0.0832 v -0.99632 z m 2.7125,0 v 0.93638 l 1.57199,-0.0832 v -0.85318 z m 2.71198,0 v 0.79323 l 1.57199,-0.0832 v -0.71003 z m 2.71198,0 v 0.65009 l 1.57199,-0.0832 v -0.56689 z m 2.71197,0 v 0.50694 l 1.572,-0.0832 v -0.42375 z m 2.71198,0 v 0.3638 l 1.572,-0.0832 v -0.2806 z m 2.71198,0 v 0.22066 l 1.572,-0.0832 v -0.13746 z m 2.71198,0 v 0.0775 l 1.464,-0.0775 z" /><path
         id="path644"
         style="fill:#000000;stroke-width:0.264583"
         d="m 31.675586,143.62844 v 7.03988 l 0.356567,-0.34726 c 0.621137,0.27313 1.210408,0.61307 1.757516,1.01441 l -0.427364,1.67845 c 0.265355,0.23136 0.514855,0.48032 0.746207,0.74569 l 1.678451,-0.42685 c 0.401367,0.54709 0.741293,1.13639 1.014408,1.75752 l -1.208711,1.24023 c 0.114143,0.33304 0.205181,0.67358 0.272851,1.01906 l 1.667082,0.46922 c 0.07404,0.67448 0.07404,1.35485 0,2.02933 l -1.667082,0.46974 c -0.06767,0.34549 -0.158709,0.68603 -0.272851,1.01906 l 0.792199,0.81236 h 4.815727 z m 0,10.26294 v 8.2579 h 1.602486 c 0.632945,-0.94993 1.00304,-2.08951 1.00304,-3.31556 0,-2.05061 -1.032713,-3.8619 -2.605526,-4.94234 z" /><path
         style="fill:#efb71b;fill-opacity:1;stroke-width:0.264583"
         d="m 38.904085,143.62844 v 6.00584 c 0.489515,0.22022 0.565795,0.82737 0.551905,1.22318 -0.01348,0.38262 0.02739,1.03404 0.02739,1.03404 0,0 -0.295794,-0.18953 -0.579293,-0.38344 v 0.41083 c 0.815661,0.33699 1.439069,1.08991 1.626258,1.95699 -0.605336,0.10832 -1.15384,0.10742 -1.626258,0.0134 v 2.04846 l 2.51871,4.89789 c 0.03404,-0.26846 0.183129,-0.55215 0.476456,-0.78703 0.939693,0.10835 1.246269,1.47295 0.763778,2.10065 h 0.380339 c 0.179509,-0.19859 0.435217,-0.36624 0.697631,-0.46819 0.527158,-0.2049 1.190951,0.0345 1.37201,0.36845 -0.0089,0.0343 -0.0187,0.0674 -0.02946,0.0997 h 3.345532 z m 1.445907,6.56549 c 1.450256,0.44426 1.818065,2.01058 1.328084,3.73414 -1.928845,-0.85916 -2.272493,-2.73822 -1.328084,-3.73414 z m 2.289266,2.13424 c 0.935246,0.55183 1.236789,1.23677 1.175639,2.20658 -0.03951,0.62571 -0.150324,1.02237 -0.630453,1.57768 -1.392239,-1.12354 -1.506225,-2.53092 -0.545186,-3.78426 z m -1.697054,2.10478 c 0.829093,-5.4e-4 1.657791,0.86376 1.066085,1.81798 0.04715,-0.25561 -0.309189,-0.50778 -0.612883,-0.46044 -0.613269,0.0956 -1.284138,5.3e-4 -1.34152,-0.91312 0.239448,-0.31145 0.563889,-0.44421 0.888318,-0.44442 z m 3.675228,1.34204 c 0.08995,3.7e-4 0.182392,0.0132 0.276469,0.0403 0.439171,0.80317 -0.01017,1.33253 -0.599447,1.52703 -0.196538,0.065 -0.454445,0.37192 -0.278019,0.56276 -1.16929,-0.40621 -0.460374,-2.13447 0.600997,-2.1301 z m -3.159497,0.52761 c 1.614409,0.10702 2.184793,1.69303 1.695503,3.40962 -1.940284,-0.4862 -2.374753,-2.20442 -1.695503,-3.40962 z m 3.679878,1.53118 c 0.452798,1.6882 -0.05049,2.97056 -1.596801,3.50728 -0.559763,-1.87648 0.137502,-3.13923 1.596801,-3.50728 z"
         id="path726" /></g><path
       d="m 54.012414,162.33577 c 1.74413,0 3.420526,-0.84666 3.420526,-2.84479 0,-1.8796 -1.676396,-2.25213 -2.878661,-2.5908 -1.134531,-0.3048 -1.59173,-0.42333 -1.59173,-0.89746 0,-0.38947 0.372533,-0.67733 0.897465,-0.67733 0.609599,0 0.948265,0.3556 0.999065,0.57573 l 2.167462,-0.38947 c -0.304799,-1.28693 -1.64253,-2.13359 -3.217327,-2.13359 -1.574797,0 -3.098794,0.98213 -3.098794,2.67546 0,1.71026 1.236131,2.37066 2.438395,2.70933 1.405464,0.38946 1.981197,0.44026 1.981197,0.91439 0,0.4572 -0.423333,0.7112 -1.117598,0.7112 -0.863599,0 -1.286931,-0.44026 -1.337731,-0.8636 l -2.302929,0.3556 c 0.237066,1.778 1.879597,2.45533 3.64066,2.45533 z"
       id="path23534"
       style="font-weight:500;font-size:16.9333px;font-family:'MADE Okine Sans PERSONAL USE';-inkscape-font-specification:'MADE Okine Sans PERSONAL USE Medium';text-align:center;text-anchor:middle;stroke-width:0.264583"
       inkscape:export-filename="path4781.png"
       inkscape:export-xdpi="491.61008"
       inkscape:export-ydpi="491.61008" /><path
       d="m 62.63148,162.33577 c 1.049864,0 1.964263,-0.3556 2.675461,-0.94826 v 0.762 h 2.269062 v -8.58519 h -2.269062 v 0.762 c -0.711198,-0.59266 -1.625597,-0.94826 -2.675461,-0.94826 -2.421462,0 -4.267192,1.99813 -4.267192,4.47039 0,2.48919 1.84573,4.48732 4.267192,4.48732 z m -1.930396,-4.48732 c 0,-1.2192 0.999064,-2.21826 2.235195,-2.21826 1.236131,0 2.235196,0.99906 2.235196,2.21826 0,1.23613 -0.999065,2.23519 -2.235196,2.23519 -1.236131,0 -2.235195,-0.99906 -2.235195,-2.23519 z"
       id="path23536"
       style="font-weight:500;font-size:16.9333px;font-family:'MADE Okine Sans PERSONAL USE';-inkscape-font-specification:'MADE Okine Sans PERSONAL USE Medium';text-align:center;text-anchor:middle;stroke-width:0.264583" /><path
       d="m 69.269341,162.14951 h 2.269063 V 149.5342 h -2.269063 z"
       id="path23538"
       style="font-weight:500;font-size:16.9333px;font-family:'MADE Okine Sans PERSONAL USE';-inkscape-font-specification:'MADE Okine Sans PERSONAL USE Medium';text-align:center;text-anchor:middle;stroke-width:0.264583" /><path
       d="m 77.515846,162.33577 c 1.777996,0 3.13266,-0.74506 3.894659,-2.09973 l -1.879597,-0.89746 c -0.406399,0.52493 -1.049864,0.89746 -2.015062,0.89746 -1.100665,0 -1.862663,-0.6096 -2.167463,-1.52399 h 6.299188 c 0.524932,-3.11573 -1.761063,-5.33399 -4.284125,-5.33399 -2.438395,0 -4.470391,1.99813 -4.470391,4.47039 0,2.48919 2.150529,4.48732 4.622791,4.48732 z m -2.116663,-5.43559 c 0.3048,-0.79586 0.999065,-1.42239 1.964263,-1.42239 1.083731,0 1.74413,0.60959 1.998129,1.42239 z"
       id="path23540"
       style="font-weight:500;font-size:16.9333px;font-family:'MADE Okine Sans PERSONAL USE';-inkscape-font-specification:'MADE Okine Sans PERSONAL USE Medium';text-align:center;text-anchor:middle;stroke-width:0.264583" /><path
       d="m 86.117947,162.33577 c 1.74413,0 3.420527,-0.84666 3.420527,-2.84479 0,-1.8796 -1.676397,-2.25213 -2.878661,-2.5908 -1.134531,-0.3048 -1.59173,-0.42333 -1.59173,-0.89746 0,-0.38947 0.372532,-0.67733 0.897465,-0.67733 0.609598,0 0.948264,0.3556 0.999064,0.57573 l 2.167463,-0.38947 c -0.3048,-1.28693 -1.64253,-2.13359 -3.217327,-2.13359 -1.574797,0 -3.098794,0.98213 -3.098794,2.67546 0,1.71026 1.236131,2.37066 2.438395,2.70933 1.405464,0.38946 1.981196,0.44026 1.981196,0.91439 0,0.4572 -0.423332,0.7112 -1.117598,0.7112 -0.863598,0 -1.28693,-0.44026 -1.33773,-0.8636 l -2.302929,0.3556 c 0.237066,1.778 1.879596,2.45533 3.640659,2.45533 z"
       id="path23542"
       style="font-weight:500;font-size:16.9333px;font-family:'MADE Okine Sans PERSONAL USE';-inkscape-font-specification:'MADE Okine Sans PERSONAL USE Medium';text-align:center;text-anchor:middle;stroke-width:0.264583" /><path
       d="m 90.910088,162.14951 h 2.252129 v -8.58519 h -2.252129 z m -0.1016,-11.09132 c 0,0.67734 0.541865,1.23614 1.219197,1.23614 0.677332,0 1.236131,-0.5588 1.236131,-1.23614 0,-0.67733 -0.558799,-1.23613 -1.236131,-1.23613 -0.677332,0 -1.219197,0.5588 -1.219197,1.23613 z"
       id="path23544"
       style="font-weight:500;font-size:16.9333px;font-family:'MADE Okine Sans PERSONAL USE';-inkscape-font-specification:'MADE Okine Sans PERSONAL USE Medium';text-align:center;text-anchor:middle;stroke-width:0.264583" /><path
       d="m 98.885687,162.33577 c 1.049865,0 1.964263,-0.3556 2.675463,-0.94826 v 0.762 h 2.26906 v -8.58519 h -2.26906 v 0.762 c -0.7112,-0.59266 -1.625598,-0.94826 -2.675463,-0.94826 -2.421461,0 -4.267191,1.99813 -4.267191,4.47039 0,2.48919 1.84573,4.48732 4.267191,4.48732 z m -1.930396,-4.48732 c 0,-1.2192 0.999065,-2.21826 2.235196,-2.21826 1.236133,0 2.235193,0.99906 2.235193,2.21826 0,1.23613 -0.99906,2.23519 -2.235193,2.23519 -1.236131,0 -2.235196,-0.99906 -2.235196,-2.23519 z"
       id="path23546"
       style="font-weight:500;font-size:16.9333px;font-family:'MADE Okine Sans PERSONAL USE';-inkscape-font-specification:'MADE Okine Sans PERSONAL USE Medium';text-align:center;text-anchor:middle;stroke-width:0.264583" /><path
       d="m 105.52355,162.14951 h 2.26906 v -4.1148 c 0,-1.25306 0.59267,-2.40452 2.01506,-2.40452 1.33773,0 1.9812,1.03293 1.9812,2.08279 v 4.43653 h 2.25213 v -4.43653 c 0,-2.40453 -1.27,-4.33492 -3.92853,-4.33492 -0.96519,0 -1.74413,0.33866 -2.31986,0.91439 v -0.72813 h -2.26906 z"
       id="path23548"
       style="font-weight:500;font-size:16.9333px;font-family:'MADE Okine Sans PERSONAL USE';-inkscape-font-specification:'MADE Okine Sans PERSONAL USE Medium';text-align:center;text-anchor:middle;stroke-width:0.264583" /><path
       d="m 123.6422,162.33577 c 1.04986,0 1.96426,-0.3556 2.67546,-0.94826 v 0.762 h 2.26906 v -8.58519 h -2.26906 v 0.762 c -0.7112,-0.59266 -1.6256,-0.94826 -2.67546,-0.94826 -2.42146,0 -4.26719,1.99813 -4.26719,4.47039 0,2.48919 1.84573,4.48732 4.26719,4.48732 z m -1.9304,-4.48732 c 0,-1.2192 0.99907,-2.21826 2.2352,-2.21826 1.23613,0 2.23519,0.99906 2.23519,2.21826 0,1.23613 -0.99906,2.23519 -2.23519,2.23519 -1.23613,0 -2.2352,-0.99906 -2.2352,-2.23519 z"
       id="path23550"
       style="font-weight:500;font-size:16.9333px;font-family:'MADE Okine Sans PERSONAL USE';-inkscape-font-specification:'MADE Okine Sans PERSONAL USE Medium';text-align:center;text-anchor:middle;fill:#efb71b;fill-opacity:1;stroke-width:0.264583" /><path
       d="m 130.38166,162.14951 h 2.25213 v -8.58519 h -2.25213 z m -0.1016,-11.09132 c 0,0.67734 0.54187,1.23614 1.2192,1.23614 0.67733,0 1.23613,-0.5588 1.23613,-1.23614 0,-0.67733 -0.5588,-1.23613 -1.23613,-1.23613 -0.67733,0 -1.2192,0.5588 -1.2192,1.23613 z"
       id="path23552"
       style="font-weight:500;font-size:16.9333px;font-family:'MADE Okine Sans PERSONAL USE';-inkscape-font-specification:'MADE Okine Sans PERSONAL USE Medium';text-align:center;text-anchor:middle;fill:#efb71b;fill-opacity:1;stroke-width:0.264583" /><path
       d="m 134.42874,162.14951 h 2.25213 v -3.3528 c 0,-2.62466 1.03293,-3.16652 2.62466,-3.16652 v -2.25213 c -1.15147,0 -2.01506,0.4572 -2.62466,1.30386 v -1.1176 h -2.25213 z"
       id="path23554"
       style="font-weight:500;font-size:16.9333px;font-family:'MADE Okine Sans PERSONAL USE';-inkscape-font-specification:'MADE Okine Sans PERSONAL USE Medium';text-align:center;text-anchor:middle;fill:#efb71b;fill-opacity:1;stroke-width:0.264583" /><path
       d="m 140.57554,162.14951 h 2.26906 V 149.5342 h -2.26906 z"
       id="path23556"
       style="font-weight:500;font-size:16.9333px;font-family:'MADE Okine Sans PERSONAL USE';-inkscape-font-specification:'MADE Okine Sans PERSONAL USE Medium';text-align:center;text-anchor:middle;fill:#efb71b;fill-opacity:1;stroke-width:0.264583" /><path
       d="m 144.63951,162.14951 h 2.25213 v -8.58519 h -2.25213 z m -0.10159,-11.09132 c 0,0.67734 0.54186,1.23614 1.21919,1.23614 0.67733,0 1.23613,-0.5588 1.23613,-1.23614 0,-0.67733 -0.5588,-1.23613 -1.23613,-1.23613 -0.67733,0 -1.21919,0.5588 -1.21919,1.23613 z"
       id="path23558"
       style="font-weight:500;font-size:16.9333px;font-family:'MADE Okine Sans PERSONAL USE';-inkscape-font-specification:'MADE Okine Sans PERSONAL USE Medium';text-align:center;text-anchor:middle;fill:#efb71b;fill-opacity:1;stroke-width:0.264583" /><path
       d="m 148.68659,162.14951 h 2.26906 v -4.1148 c 0,-1.25306 0.59267,-2.40452 2.01506,-2.40452 1.33773,0 1.9812,1.03293 1.9812,2.08279 v 4.43653 h 2.25213 v -4.43653 c 0,-2.40453 -1.27,-4.33492 -3.92853,-4.33492 -0.96519,0 -1.74413,0.33866 -2.31986,0.91439 v -0.72813 h -2.26906 z"
       id="path23560"
       style="font-weight:500;font-size:16.9333px;font-family:'MADE Okine Sans PERSONAL USE';-inkscape-font-specification:'MADE Okine Sans PERSONAL USE Medium';text-align:center;text-anchor:middle;fill:#efb71b;fill-opacity:1;stroke-width:0.264583" /><path
       d="m 163.18151,162.33577 c 1.77799,0 3.13266,-0.74506 3.89466,-2.09973 l -1.8796,-0.89746 c -0.4064,0.52493 -1.04987,0.89746 -2.01506,0.89746 -1.10067,0 -1.86267,-0.6096 -2.16747,-1.52399 h 6.29919 c 0.52493,-3.11573 -1.76106,-5.33399 -4.28412,-5.33399 -2.4384,0 -4.47039,1.99813 -4.47039,4.47039 0,2.48919 2.15052,4.48732 4.62279,4.48732 z m -2.11667,-5.43559 c 0.3048,-0.79586 0.99907,-1.42239 1.96427,-1.42239 1.08373,0 1.74413,0.60959 1.99813,1.42239 z"
       id="path23562"
       style="font-weight:500;font-size:16.9333px;font-family:'MADE Okine Sans PERSONAL USE';-inkscape-font-specification:'MADE Okine Sans PERSONAL USE Medium';text-align:center;text-anchor:middle;fill:#efb71b;fill-opacity:1;stroke-width:0.264583" /><path
       d="m 171.78361,162.33577 c 1.74413,0 3.42052,-0.84666 3.42052,-2.84479 0,-1.8796 -1.67639,-2.25213 -2.87866,-2.5908 -1.13453,-0.3048 -1.59173,-0.42333 -1.59173,-0.89746 0,-0.38947 0.37254,-0.67733 0.89747,-0.67733 0.6096,0 0.94826,0.3556 0.99906,0.57573 l 2.16747,-0.38947 c -0.3048,-1.28693 -1.64253,-2.13359 -3.21733,-2.13359 -1.5748,0 -3.0988,0.98213 -3.0988,2.67546 0,1.71026 1.23614,2.37066 2.4384,2.70933 1.40546,0.38946 1.9812,0.44026 1.9812,0.91439 0,0.4572 -0.42334,0.7112 -1.1176,0.7112 -0.8636,0 -1.28693,-0.44026 -1.33773,-0.8636 l -2.30293,0.3556 c 0.23706,1.778 1.8796,2.45533 3.64066,2.45533 z"
       id="path23564"
       style="font-weight:500;font-size:16.9333px;font-family:'MADE Okine Sans PERSONAL USE';-inkscape-font-specification:'MADE Okine Sans PERSONAL USE Medium';text-align:center;text-anchor:middle;fill:#efb71b;fill-opacity:1;stroke-width:0.264583" /><path
       d="m 177.96428,162.33577 c 0.72813,0 1.30386,-0.57573 1.30386,-1.30386 0,-0.72813 -0.57573,-1.30387 -1.30386,-1.30387 -0.72813,0 -1.3208,0.57574 -1.3208,1.30387 0,0.72813 0.59267,1.30386 1.3208,1.30386 z"
       id="path23566"
       style="font-weight:500;font-size:16.9333px;font-family:'MADE Okine Sans PERSONAL USE';-inkscape-font-specification:'MADE Okine Sans PERSONAL USE Medium';text-align:center;text-anchor:middle;fill:#efb71b;fill-opacity:1;stroke-width:0.264583" /><path
       id="path23568"
       style="fill:#071d49;fill-opacity:1;stroke-width:0.318319"
       d="m 61.608643,164.26336 -29.933057,7.73906 119.637144,-6.31331 v -1.42575 z m 90.843547,0 v 1.36581 l 1.57252,-0.0832 v -1.28261 z m 2.71198,0 v 1.22266 l 1.57252,-0.0832 v -1.13946 z m 2.71198,0 v 1.07952 l 1.57252,-0.0832 v -0.99632 z m 2.7125,0 v 0.93638 l 1.57199,-0.0832 v -0.85318 z m 2.71198,0 v 0.79323 l 1.57199,-0.0832 v -0.71003 z m 2.71198,0 v 0.65009 l 1.57199,-0.0832 v -0.56689 z m 2.71197,0 v 0.50694 l 1.572,-0.0832 v -0.42375 z m 2.71198,0 v 0.3638 l 1.572,-0.0832 v -0.2806 z m 2.71198,0 v 0.22066 l 1.572,-0.0832 v -0.13746 z m 2.71198,0 v 0.0775 l 1.464,-0.0775 z" /><path
       id="path23570"
       style="fill:#000000;stroke-width:0.264583"
       d="m 31.675586,143.62844 v 7.03988 l 0.356567,-0.34726 c 0.621137,0.27313 1.210408,0.61307 1.757516,1.01441 l -0.427364,1.67845 c 0.265355,0.23136 0.514855,0.48032 0.746207,0.74569 l 1.678451,-0.42685 c 0.401367,0.54709 0.741293,1.13639 1.014408,1.75752 l -1.208711,1.24023 c 0.114143,0.33304 0.205181,0.67358 0.272851,1.01906 l 1.667082,0.46922 c 0.07404,0.67448 0.07404,1.35485 0,2.02933 l -1.667082,0.46974 c -0.06767,0.34549 -0.158709,0.68603 -0.272851,1.01906 l 0.792199,0.81236 h 4.815727 z m 0,10.26294 v 8.2579 h 1.602486 c 0.632945,-0.94993 1.00304,-2.08951 1.00304,-3.31556 0,-2.05061 -1.032713,-3.8619 -2.605526,-4.94234 z"
       inkscape:export-filename=".\path23570.png"
       inkscape:export-xdpi="4548.3047"
       inkscape:export-ydpi="4548.3047" /><path
       style="fill:#efb71b;fill-opacity:1;stroke-width:0.264583"
       d="m 38.904085,143.62844 v 6.00584 c 0.489515,0.22022 0.565795,0.82737 0.551905,1.22318 -0.01348,0.38262 0.02739,1.03404 0.02739,1.03404 0,0 -0.295794,-0.18953 -0.579293,-0.38344 v 0.41083 c 0.815661,0.33699 1.439069,1.08991 1.626258,1.95699 -0.605336,0.10832 -1.15384,0.10742 -1.626258,0.0134 v 2.04846 l 2.51871,4.89789 c 0.03404,-0.26846 0.183129,-0.55215 0.476456,-0.78703 0.939693,0.10835 1.246269,1.47295 0.763778,2.10065 h 0.380339 c 0.179509,-0.19859 0.435217,-0.36624 0.697631,-0.46819 0.527158,-0.2049 1.190951,0.0345 1.37201,0.36845 -0.0089,0.0343 -0.0187,0.0674 -0.02946,0.0997 h 3.345532 z m 1.445907,6.56549 c 1.450256,0.44426 1.818065,2.01058 1.328084,3.73414 -1.928845,-0.85916 -2.272493,-2.73822 -1.328084,-3.73414 z m 2.289266,2.13424 c 0.935246,0.55183 1.236789,1.23677 1.175639,2.20658 -0.03951,0.62571 -0.150324,1.02237 -0.630453,1.57768 -1.392239,-1.12354 -1.506225,-2.53092 -0.545186,-3.78426 z m -1.697054,2.10478 c 0.829093,-5.4e-4 1.657791,0.86376 1.066085,1.81798 0.04715,-0.25561 -0.309189,-0.50778 -0.612883,-0.46044 -0.613269,0.0956 -1.284138,5.3e-4 -1.34152,-0.91312 0.239448,-0.31145 0.563889,-0.44421 0.888318,-0.44442 z m 3.675228,1.34204 c 0.08995,3.7e-4 0.182392,0.0132 0.276469,0.0403 0.439171,0.80317 -0.01017,1.33253 -0.599447,1.52703 -0.196538,0.065 -0.454445,0.37192 -0.278019,0.56276 -1.16929,-0.40621 -0.460374,-2.13447 0.600997,-2.1301 z m -3.159497,0.52761 c 1.614409,0.10702 2.184793,1.69303 1.695503,3.40962 -1.940284,-0.4862 -2.374753,-2.20442 -1.695503,-3.40962 z m 3.679878,1.53118 c 0.452798,1.6882 -0.05049,2.97056 -1.596801,3.50728 -0.559763,-1.87648 0.137502,-3.13923 1.596801,-3.50728 z"
       id="path23572" /></g></svg>
